<svg width="1440" height="96" viewBox="0 0 1440 96" fill="none" xmlns="http://www.w3.org/2000/svg">
<path d="M730.999 36.3554V57.6254C730.999 58.7616 731.229 59.6836 731.691 60.3932C732.152 61.1032 732.879 61.4574 733.873 61.4574C734.582 61.4574 735.443 61.1915 736.454 60.6592C737.465 60.1268 738.556 59.2578 739.727 58.0512V43.647C739.727 42.4758 739.585 41.5538 739.301 40.8792C739.017 40.2057 738.521 39.6909 737.811 39.3355V39.1761C738.591 39.1761 739.381 39.0524 740.18 38.8036C740.978 38.5555 741.731 38.218 742.442 37.7922C743.151 37.3664 743.753 36.8874 744.251 36.3554H744.411L744.411 36.3931C744.411 37.1977 744.418 50.6356 744.411 52.5062C744.393 57.3952 746.079 63.3622 753.725 63.7393C755.178 63.8108 756.36 63.2869 757.265 62.3821C758.169 61.4772 758.622 60.2623 758.622 58.7361C758.622 57.6368 758.32 56.7404 757.717 56.0486C757.113 55.3569 756.341 54.7713 755.402 54.2922C754.461 53.8132 753.477 53.3608 752.448 52.935C751.348 52.4384 750.301 51.8704 749.308 51.2319C748.314 50.593 747.498 49.7772 746.86 48.7833C746.221 47.7906 745.902 46.5133 745.902 44.9513C745.902 43.3905 746.301 41.98 747.099 40.7202C747.897 39.4611 749.006 38.4672 750.425 37.7397C751.844 37.0129 753.477 36.6488 755.322 36.6488C756.208 36.6488 757.087 36.7108 757.956 36.8349C758.825 36.9597 759.668 37.1461 760.484 37.3938L758.834 43.8338H758.675C758.356 41.9534 757.717 40.4991 756.759 39.4695C755.801 38.441 754.718 37.9261 753.512 37.9261C752.163 37.9261 751.117 38.4052 750.372 39.3629C749.627 40.321 749.255 41.4039 749.255 42.6097C749.255 43.674 749.547 44.5522 750.133 45.2443C750.718 45.9361 751.48 46.5217 752.421 47.0007C753.361 47.4798 754.346 47.9504 755.375 48.4108C756.474 48.8724 757.522 49.4138 758.515 50.0344C759.508 50.6554 760.333 51.4537 760.99 52.4293C761.646 53.4057 761.974 54.6564 761.974 56.1818C761.974 58.0626 761.539 59.6504 760.671 60.9449C759.801 62.2409 757.843 64.9173 753.612 64.9634C750.252 65.0003 747.572 63.2287 744.606 63.2287C742.34 63.2287 740.809 64.2427 739.887 64.9173H739.727V61.3513C739.727 60.8547 739.735 60.3582 739.754 59.8609C739.771 59.3647 739.798 58.956 739.834 58.6368H739.78C739.035 59.6307 738.184 60.6059 737.226 61.564C736.268 62.5221 735.248 63.3204 734.165 63.9592C733.083 64.5977 732.028 64.9173 730.999 64.9173C729.509 64.9173 728.365 64.393 727.566 63.347C727.361 63.0788 727.183 62.7913 727.031 62.4845C726.536 63.1732 725.865 63.7599 725.016 64.245C724.147 64.7412 723.287 64.99 722.435 64.99C721.406 64.99 720.537 64.6441 719.827 63.952C719.117 63.2603 718.763 62.1872 718.763 60.7322V60.2532H718.709C717.574 61.637 716.332 62.7637 714.984 63.6328C713.635 64.5018 712.287 64.9367 710.939 64.9367C709.556 64.9367 708.349 64.3862 707.32 63.2869C706.291 62.1872 705.777 60.7505 705.777 58.9758C705.777 57.4854 706.256 56.0311 707.214 54.6115C708.172 53.1926 709.617 51.9419 711.551 50.8594C713.485 49.7772 715.924 48.9698 718.869 48.4375C718.869 46.9832 718.878 45.626 718.896 44.3661C718.913 43.107 718.923 42.0865 718.923 41.3057C718.923 40.1703 718.7 39.2921 718.257 38.6712C717.813 38.0506 717.184 37.7397 716.368 37.7397C715.516 37.7397 714.824 37.9977 714.292 38.5114C713.76 39.0262 713.308 39.665 712.935 40.4276C712.563 41.1908 712.207 41.9625 711.871 42.7425C711.533 43.5237 711.134 44.1713 710.673 44.6854C710.212 45.2002 709.608 45.457 708.863 45.457C708.295 45.457 707.816 45.2439 707.426 44.8185C707.036 44.3927 706.841 43.8429 706.841 43.1683C706.841 42.069 707.337 41.0128 708.331 40.0018C709.324 38.9904 710.575 38.1746 712.084 37.5533C713.591 36.933 715.125 36.6222 716.687 36.6222C718.887 36.6222 720.59 37.1457 721.796 38.1921C723.002 39.2389 723.606 40.6669 723.606 42.4765C723.606 43.6127 723.597 44.9338 723.579 46.4417C723.561 47.9501 723.544 49.5375 723.526 51.2052C723.508 52.8733 723.49 54.4966 723.473 56.0753C723.455 57.6543 723.447 59.0474 723.447 60.2532C723.447 61.1405 723.579 61.8151 723.845 62.2755C724.112 62.7371 724.546 62.9673 725.149 62.9673C725.717 62.9673 726.302 62.7196 726.906 62.2226L726.914 62.2335C726.55 61.3988 726.368 60.4305 726.368 59.3289V43.647C726.368 42.4758 726.209 41.5538 725.889 40.8792C725.57 40.2057 725.073 39.6909 724.399 39.3355V39.1761C725.179 39.1761 725.969 39.0524 726.768 38.8036C727.566 38.5555 728.319 38.218 729.03 37.7922C729.739 37.3664 730.342 36.8874 730.839 36.3554H730.999ZM688.325 25V25.1594C687.402 25.5502 686.728 26.2237 686.302 27.1818C685.877 28.1399 685.664 29.0805 685.664 30.0024L685.47 39.636H698.81V30.0024C698.81 29.0805 698.588 28.1399 698.144 27.1818C697.7 26.2237 697.053 25.5502 696.202 25.1594V25H706.527V25.1594C705.64 25.5502 704.974 26.2237 704.531 27.1818C704.087 28.1399 703.866 29.0805 703.866 30.0024V59.914C703.866 61.0502 704.123 62.0433 704.637 62.8948C705.151 63.746 705.782 64.3674 706.527 64.7578V64.9172H696.202V64.7578C696.911 64.3674 697.523 63.746 698.038 62.8948C698.552 62.0433 698.81 61.0502 698.81 59.914V40.86H685.47L685.664 59.914C685.664 61.0502 685.921 62.0433 686.435 62.8948C686.95 63.746 687.58 64.3674 688.325 64.7578V64.9172H678V64.7578C678.709 64.3674 679.321 63.746 679.836 62.8948C680.35 62.0433 680.608 61.0502 680.608 59.914V30.0024C680.608 29.0805 680.403 28.1399 679.996 27.1818C679.587 26.2237 678.922 25.5502 678 25.1594V25H688.325ZM718.869 49.1829C716.634 49.6802 714.931 50.3803 713.76 51.2851C712.589 52.19 711.781 53.201 711.338 54.3185C710.894 55.4364 710.673 56.5631 710.673 57.6985C710.673 59.0474 710.947 60.1029 711.498 60.865C712.048 61.6287 712.837 62.0096 713.866 62.0096C714.54 62.0096 715.294 61.8231 716.128 61.4506C716.961 61.0781 717.84 60.4487 718.763 59.561C718.763 58.036 718.771 56.3679 718.789 54.5582C718.807 52.7485 718.833 50.9571 718.869 49.1829Z" fill="white"/>
<path d="M63.5039 47.1973C62.5391 46.9199 61.8359 46.5801 61.3945 46.1777C60.957 45.7715 60.7383 45.2715 60.7383 44.6777C60.7383 44.0059 61.0059 43.4512 61.541 43.0137C62.0801 42.5723 62.7793 42.3516 63.6387 42.3516C64.2246 42.3516 64.7461 42.4648 65.2031 42.6914C65.6641 42.918 66.0195 43.2305 66.2695 43.6289C66.5234 44.0273 66.6504 44.4629 66.6504 44.9355H65.5195C65.5195 44.4199 65.3555 44.0156 65.0273 43.7227C64.6992 43.4258 64.2363 43.2773 63.6387 43.2773C63.084 43.2773 62.6504 43.4004 62.3379 43.6465C62.0293 43.8887 61.875 44.2266 61.875 44.6602C61.875 45.0078 62.0215 45.3027 62.3145 45.5449C62.6113 45.7832 63.1133 46.002 63.8203 46.2012C64.5312 46.4004 65.0859 46.6211 65.4844 46.8633C65.8867 47.1016 66.1836 47.3809 66.375 47.7012C66.5703 48.0215 66.668 48.3984 66.668 48.832C66.668 49.5234 66.3984 50.0781 65.8594 50.4961C65.3203 50.9102 64.5996 51.1172 63.6973 51.1172C63.1113 51.1172 62.5645 51.0059 62.0566 50.7832C61.5488 50.5566 61.1562 50.248 60.8789 49.8574C60.6055 49.4668 60.4688 49.0234 60.4688 48.5273H61.5996C61.5996 49.043 61.7891 49.4512 62.168 49.752C62.5508 50.0488 63.0605 50.1973 63.6973 50.1973C64.291 50.1973 64.7461 50.0762 65.0625 49.834C65.3789 49.5918 65.5371 49.2617 65.5371 48.8438C65.5371 48.4258 65.3906 48.1035 65.0977 47.877C64.8047 47.6465 64.2734 47.4199 63.5039 47.1973ZM75.6719 51H74.541V47.0566H70.2402V51H69.1152V42.4688H70.2402V46.1367H74.541V42.4688H75.6719V51ZM85.2324 47.0098C85.2324 47.8457 85.0918 48.5762 84.8105 49.2012C84.5293 49.8223 84.1309 50.2969 83.6152 50.625C83.0996 50.9531 82.498 51.1172 81.8105 51.1172C81.1387 51.1172 80.543 50.9531 80.0234 50.625C79.5039 50.293 79.0996 49.8223 78.8105 49.2129C78.5254 48.5996 78.3789 47.8906 78.3711 47.0859V46.4707C78.3711 45.6504 78.5137 44.9258 78.7988 44.2969C79.084 43.668 79.4863 43.1875 80.0059 42.8555C80.5293 42.5195 81.127 42.3516 81.7988 42.3516C82.4824 42.3516 83.084 42.5176 83.6035 42.8496C84.127 43.1777 84.5293 43.6562 84.8105 44.2852C85.0918 44.9102 85.2324 45.6387 85.2324 46.4707V47.0098ZM84.1133 46.459C84.1133 45.4473 83.9102 44.6719 83.5039 44.1328C83.0977 43.5898 82.5293 43.3184 81.7988 43.3184C81.0879 43.3184 80.5273 43.5898 80.1172 44.1328C79.7109 44.6719 79.502 45.4219 79.4902 46.3828V47.0098C79.4902 47.9902 79.6953 48.7617 80.1055 49.3242C80.5195 49.8828 81.0879 50.1621 81.8105 50.1621C82.5371 50.1621 83.0996 49.8984 83.498 49.3711C83.8965 48.8398 84.1016 48.0801 84.1133 47.0918V46.459ZM89.0449 47.6602V51H87.9199V42.4688H91.0664C92 42.4688 92.7305 42.707 93.2578 43.1836C93.7891 43.6602 94.0547 44.291 94.0547 45.0762C94.0547 45.9043 93.7949 46.543 93.2754 46.9922C92.7598 47.4375 92.0195 47.6602 91.0547 47.6602H89.0449ZM89.0449 46.7402H91.0664C91.668 46.7402 92.1289 46.5996 92.4492 46.3184C92.7695 46.0332 92.9297 45.623 92.9297 45.0879C92.9297 44.5801 92.7695 44.1738 92.4492 43.8691C92.1289 43.5645 91.6895 43.4062 91.1309 43.3945H89.0449V46.7402Z" fill="white"/>
<path d="M331.553 47.0098C331.553 47.8457 331.412 48.5762 331.131 49.2012C330.85 49.8223 330.451 50.2969 329.936 50.625C329.42 50.9531 328.818 51.1172 328.131 51.1172C327.459 51.1172 326.863 50.9531 326.344 50.625C325.824 50.293 325.42 49.8223 325.131 49.2129C324.846 48.5996 324.699 47.8906 324.691 47.0859V46.4707C324.691 45.6504 324.834 44.9258 325.119 44.2969C325.404 43.668 325.807 43.1875 326.326 42.8555C326.85 42.5195 327.447 42.3516 328.119 42.3516C328.803 42.3516 329.404 42.5176 329.924 42.8496C330.447 43.1777 330.85 43.6562 331.131 44.2852C331.412 44.9102 331.553 45.6387 331.553 46.4707V47.0098ZM330.434 46.459C330.434 45.4473 330.23 44.6719 329.824 44.1328C329.418 43.5898 328.85 43.3184 328.119 43.3184C327.408 43.3184 326.848 43.5898 326.438 44.1328C326.031 44.6719 325.822 45.4219 325.811 46.3828V47.0098C325.811 47.9902 326.016 48.7617 326.426 49.3242C326.84 49.8828 327.408 50.1621 328.131 50.1621C328.857 50.1621 329.42 49.8984 329.818 49.3711C330.217 48.8398 330.422 48.0801 330.434 47.0918V46.459ZM340.246 42.4688V48.2695C340.242 49.0742 339.988 49.7324 339.484 50.2441C338.984 50.7559 338.305 51.043 337.445 51.1055L337.146 51.1172C336.213 51.1172 335.469 50.8652 334.914 50.3613C334.359 49.8574 334.078 49.1641 334.07 48.2812V42.4688H335.184V48.2461C335.184 48.8633 335.354 49.3438 335.693 49.6875C336.033 50.0273 336.518 50.1973 337.146 50.1973C337.783 50.1973 338.27 50.0273 338.605 49.6875C338.945 49.3477 339.115 48.8691 339.115 48.252V42.4688H340.246ZM346.15 47.5488H344.146V51H343.016V42.4688H345.84C346.801 42.4688 347.539 42.6875 348.055 43.125C348.574 43.5625 348.834 44.1992 348.834 45.0352C348.834 45.5664 348.689 46.0293 348.4 46.4238C348.115 46.8184 347.717 47.1133 347.205 47.3086L349.209 50.9297V51H348.002L346.15 47.5488ZM344.146 46.6289H345.875C346.434 46.6289 346.877 46.4844 347.205 46.1953C347.537 45.9062 347.703 45.5195 347.703 45.0352C347.703 44.5078 347.545 44.1035 347.229 43.8223C346.916 43.541 346.463 43.3984 345.869 43.3945H344.146V46.6289ZM357.906 47.1973C356.941 46.9199 356.238 46.5801 355.797 46.1777C355.359 45.7715 355.141 45.2715 355.141 44.6777C355.141 44.0059 355.408 43.4512 355.943 43.0137C356.482 42.5723 357.182 42.3516 358.041 42.3516C358.627 42.3516 359.148 42.4648 359.605 42.6914C360.066 42.918 360.422 43.2305 360.672 43.6289C360.926 44.0273 361.053 44.4629 361.053 44.9355H359.922C359.922 44.4199 359.758 44.0156 359.43 43.7227C359.102 43.4258 358.639 43.2773 358.041 43.2773C357.486 43.2773 357.053 43.4004 356.74 43.6465C356.432 43.8887 356.277 44.2266 356.277 44.6602C356.277 45.0078 356.424 45.3027 356.717 45.5449C357.014 45.7832 357.516 46.002 358.223 46.2012C358.934 46.4004 359.488 46.6211 359.887 46.8633C360.289 47.1016 360.586 47.3809 360.777 47.7012C360.973 48.0215 361.07 48.3984 361.07 48.832C361.07 49.5234 360.801 50.0781 360.262 50.4961C359.723 50.9102 359.002 51.1172 358.1 51.1172C357.514 51.1172 356.967 51.0059 356.459 50.7832C355.951 50.5566 355.559 50.248 355.281 49.8574C355.008 49.4668 354.871 49.0234 354.871 48.5273H356.002C356.002 49.043 356.191 49.4512 356.57 49.752C356.953 50.0488 357.463 50.1973 358.1 50.1973C358.693 50.1973 359.148 50.0762 359.465 49.834C359.781 49.5918 359.939 49.2617 359.939 48.8438C359.939 48.4258 359.793 48.1035 359.5 47.877C359.207 47.6465 358.676 47.4199 357.906 47.1973ZM369.412 43.3945H366.67V51H365.551V43.3945H362.814V42.4688H369.412V43.3945ZM378.076 47.0098C378.076 47.8457 377.936 48.5762 377.654 49.2012C377.373 49.8223 376.975 50.2969 376.459 50.625C375.943 50.9531 375.342 51.1172 374.654 51.1172C373.982 51.1172 373.387 50.9531 372.867 50.625C372.348 50.293 371.943 49.8223 371.654 49.2129C371.369 48.5996 371.223 47.8906 371.215 47.0859V46.4707C371.215 45.6504 371.357 44.9258 371.643 44.2969C371.928 43.668 372.33 43.1875 372.85 42.8555C373.373 42.5195 373.971 42.3516 374.643 42.3516C375.326 42.3516 375.928 42.5176 376.447 42.8496C376.971 43.1777 377.373 43.6562 377.654 44.2852C377.936 44.9102 378.076 45.6387 378.076 46.4707V47.0098ZM376.957 46.459C376.957 45.4473 376.754 44.6719 376.348 44.1328C375.941 43.5898 375.373 43.3184 374.643 43.3184C373.932 43.3184 373.371 43.5898 372.961 44.1328C372.555 44.6719 372.346 45.4219 372.334 46.3828V47.0098C372.334 47.9902 372.539 48.7617 372.949 49.3242C373.363 49.8828 373.932 50.1621 374.654 50.1621C375.381 50.1621 375.943 49.8984 376.342 49.3711C376.74 48.8398 376.945 48.0801 376.957 47.0918V46.459ZM383.893 47.5488H381.889V51H380.758V42.4688H383.582C384.543 42.4688 385.281 42.6875 385.797 43.125C386.316 43.5625 386.576 44.1992 386.576 45.0352C386.576 45.5664 386.432 46.0293 386.143 46.4238C385.857 46.8184 385.459 47.1133 384.947 47.3086L386.951 50.9297V51H385.744L383.893 47.5488ZM381.889 46.6289H383.617C384.176 46.6289 384.619 46.4844 384.947 46.1953C385.279 45.9062 385.445 45.5195 385.445 45.0352C385.445 44.5078 385.287 44.1035 384.971 43.8223C384.658 43.541 384.205 43.3984 383.611 43.3945H381.889V46.6289ZM391.479 46.752L393.705 42.4688H394.982L392.041 47.8184V51H390.916V47.8184L387.975 42.4688H389.264L391.479 46.752Z" fill="white"/>
<path d="M164.443 42.4688L167.232 49.4297L170.021 42.4688H171.48V51H170.355V47.6777L170.461 44.0918L167.66 51H166.799L164.004 44.1094L164.115 47.6777V51H162.99V42.4688H164.443ZM179.289 47.0566H175.592V50.0801H179.887V51H174.467V42.4688H179.828V43.3945H175.592V46.1367H179.289V47.0566ZM183.74 42.4688L186.529 49.4297L189.318 42.4688H190.777V51H189.652V47.6777L189.758 44.0918L186.957 51H186.096L183.301 44.1094L183.412 47.6777V51H182.287V42.4688H183.74ZM193.764 51V42.4688H196.553C197.479 42.4688 198.174 42.6602 198.639 43.043C199.107 43.4258 199.342 43.9922 199.342 44.7422C199.342 45.1406 199.229 45.4941 199.002 45.8027C198.775 46.1074 198.467 46.3438 198.076 46.5117C198.537 46.6406 198.9 46.8867 199.166 47.25C199.436 47.6094 199.57 48.0391 199.57 48.5391C199.57 49.3047 199.322 49.9062 198.826 50.3438C198.33 50.7812 197.629 51 196.723 51H193.764ZM194.889 47.0098V50.0801H196.746C197.27 50.0801 197.682 49.9453 197.982 49.6758C198.287 49.4023 198.439 49.0273 198.439 48.5508C198.439 47.5234 197.881 47.0098 196.764 47.0098H194.889ZM194.889 46.1074H196.588C197.08 46.1074 197.473 45.9844 197.766 45.7383C198.062 45.4922 198.211 45.1582 198.211 44.7363C198.211 44.2676 198.074 43.9277 197.801 43.7168C197.527 43.502 197.111 43.3945 196.553 43.3945H194.889V46.1074ZM207.062 47.0566H203.365V50.0801H207.66V51H202.24V42.4688H207.602V43.3945H203.365V46.1367H207.062V47.0566ZM213.189 47.5488H211.186V51H210.055V42.4688H212.879C213.84 42.4688 214.578 42.6875 215.094 43.125C215.613 43.5625 215.873 44.1992 215.873 45.0352C215.873 45.5664 215.729 46.0293 215.439 46.4238C215.154 46.8184 214.756 47.1133 214.244 47.3086L216.248 50.9297V51H215.041L213.189 47.5488ZM211.186 46.6289H212.914C213.473 46.6289 213.916 46.4844 214.244 46.1953C214.576 45.9062 214.742 45.5195 214.742 45.0352C214.742 44.5078 214.584 44.1035 214.268 43.8223C213.955 43.541 213.502 43.3984 212.908 43.3945H211.186V46.6289ZM220.969 47.1973C220.004 46.9199 219.301 46.5801 218.859 46.1777C218.422 45.7715 218.203 45.2715 218.203 44.6777C218.203 44.0059 218.471 43.4512 219.006 43.0137C219.545 42.5723 220.244 42.3516 221.104 42.3516C221.689 42.3516 222.211 42.4648 222.668 42.6914C223.129 42.918 223.484 43.2305 223.734 43.6289C223.988 44.0273 224.115 44.4629 224.115 44.9355H222.984C222.984 44.4199 222.82 44.0156 222.492 43.7227C222.164 43.4258 221.701 43.2773 221.104 43.2773C220.549 43.2773 220.115 43.4004 219.803 43.6465C219.494 43.8887 219.34 44.2266 219.34 44.6602C219.34 45.0078 219.486 45.3027 219.779 45.5449C220.076 45.7832 220.578 46.002 221.285 46.2012C221.996 46.4004 222.551 46.6211 222.949 46.8633C223.352 47.1016 223.648 47.3809 223.84 47.7012C224.035 48.0215 224.133 48.3984 224.133 48.832C224.133 49.5234 223.863 50.0781 223.324 50.4961C222.785 50.9102 222.064 51.1172 221.162 51.1172C220.576 51.1172 220.029 51.0059 219.521 50.7832C219.014 50.5566 218.621 50.248 218.344 49.8574C218.07 49.4668 217.934 49.0234 217.934 48.5273H219.064C219.064 49.043 219.254 49.4512 219.633 49.752C220.016 50.0488 220.525 50.1973 221.162 50.1973C221.756 50.1973 222.211 50.0762 222.527 49.834C222.844 49.5918 223.002 49.2617 223.002 48.8438C223.002 48.4258 222.855 48.1035 222.562 47.877C222.27 47.6465 221.738 47.4199 220.969 47.1973ZM233.137 51H232.006V47.0566H227.705V51H226.58V42.4688H227.705V46.1367H232.006V42.4688H233.137V51ZM237.342 51H236.217V42.4688H237.342V51ZM241.529 47.6602V51H240.404V42.4688H243.551C244.484 42.4688 245.215 42.707 245.742 43.1836C246.273 43.6602 246.539 44.291 246.539 45.0762C246.539 45.9043 246.279 46.543 245.76 46.9922C245.244 47.4375 244.504 47.6602 243.539 47.6602H241.529ZM241.529 46.7402H243.551C244.152 46.7402 244.613 46.5996 244.934 46.3184C245.254 46.0332 245.414 45.623 245.414 45.0879C245.414 44.5801 245.254 44.1738 244.934 43.8691C244.613 43.5645 244.174 43.4062 243.615 43.3945H241.529V46.7402Z" fill="white"/>
<path d="M1188.74 50.7734H1185.17L1184.36 53H1183.2L1186.46 44.4688H1187.45L1190.71 53H1189.55L1188.74 50.7734ZM1185.51 49.8477H1188.41L1186.95 45.8574L1185.51 49.8477ZM1199.06 50.293C1198.96 51.1953 1198.62 51.8926 1198.06 52.3848C1197.5 52.873 1196.76 53.1172 1195.83 53.1172C1194.82 53.1172 1194.01 52.7559 1193.4 52.0332C1192.8 51.3105 1192.49 50.3438 1192.49 49.1328V48.3125C1192.49 47.5195 1192.63 46.8223 1192.92 46.2207C1193.2 45.6191 1193.6 45.1582 1194.12 44.8379C1194.64 44.5137 1195.24 44.3516 1195.93 44.3516C1196.83 44.3516 1197.56 44.6055 1198.11 45.1133C1198.65 45.6172 1198.97 46.3164 1199.06 47.2109H1197.93C1197.83 46.5312 1197.62 46.0391 1197.29 45.7344C1196.97 45.4297 1196.51 45.2773 1195.93 45.2773C1195.21 45.2773 1194.64 45.543 1194.23 46.0742C1193.83 46.6055 1193.62 47.3613 1193.62 48.3418V49.168C1193.62 50.0938 1193.82 50.8301 1194.21 51.377C1194.59 51.9238 1195.13 52.1973 1195.83 52.1973C1196.45 52.1973 1196.93 52.0566 1197.26 51.7754C1197.6 51.4902 1197.82 50.9961 1197.93 50.293H1199.06ZM1207.88 50.293C1207.77 51.1953 1207.44 51.8926 1206.88 52.3848C1206.32 52.873 1205.57 53.1172 1204.64 53.1172C1203.64 53.1172 1202.83 52.7559 1202.22 52.0332C1201.61 51.3105 1201.31 50.3438 1201.31 49.1328V48.3125C1201.31 47.5195 1201.45 46.8223 1201.73 46.2207C1202.02 45.6191 1202.42 45.1582 1202.94 44.8379C1203.46 44.5137 1204.06 44.3516 1204.74 44.3516C1205.65 44.3516 1206.38 44.6055 1206.92 45.1133C1207.47 45.6172 1207.79 46.3164 1207.88 47.2109H1206.75C1206.65 46.5312 1206.44 46.0391 1206.11 45.7344C1205.79 45.4297 1205.33 45.2773 1204.74 45.2773C1204.03 45.2773 1203.46 45.543 1203.05 46.0742C1202.64 46.6055 1202.44 47.3613 1202.44 48.3418V49.168C1202.44 50.0938 1202.63 50.8301 1203.02 51.377C1203.41 51.9238 1203.95 52.1973 1204.64 52.1973C1205.27 52.1973 1205.75 52.0566 1206.08 51.7754C1206.42 51.4902 1206.64 50.9961 1206.75 50.293H1207.88ZM1216.98 49.0098C1216.98 49.8457 1216.84 50.5762 1216.56 51.2012C1216.28 51.8223 1215.88 52.2969 1215.37 52.625C1214.85 52.9531 1214.25 53.1172 1213.56 53.1172C1212.89 53.1172 1212.29 52.9531 1211.77 52.625C1211.25 52.293 1210.85 51.8223 1210.56 51.2129C1210.28 50.5996 1210.13 49.8906 1210.12 49.0859V48.4707C1210.12 47.6504 1210.26 46.9258 1210.55 46.2969C1210.83 45.668 1211.24 45.1875 1211.76 44.8555C1212.28 44.5195 1212.88 44.3516 1213.55 44.3516C1214.23 44.3516 1214.83 44.5176 1215.35 44.8496C1215.88 45.1777 1216.28 45.6562 1216.56 46.2852C1216.84 46.9102 1216.98 47.6387 1216.98 48.4707V49.0098ZM1215.86 48.459C1215.86 47.4473 1215.66 46.6719 1215.25 46.1328C1214.85 45.5898 1214.28 45.3184 1213.55 45.3184C1212.84 45.3184 1212.28 45.5898 1211.87 46.1328C1211.46 46.6719 1211.25 47.4219 1211.24 48.3828V49.0098C1211.24 49.9902 1211.45 50.7617 1211.86 51.3242C1212.27 51.8828 1212.84 52.1621 1213.56 52.1621C1214.29 52.1621 1214.85 51.8984 1215.25 51.3711C1215.65 50.8398 1215.85 50.0801 1215.86 49.0918V48.459ZM1225.68 44.4688V50.2695C1225.67 51.0742 1225.42 51.7324 1224.91 52.2441C1224.41 52.7559 1223.73 53.043 1222.88 53.1055L1222.58 53.1172C1221.64 53.1172 1220.9 52.8652 1220.34 52.3613C1219.79 51.8574 1219.51 51.1641 1219.5 50.2812V44.4688H1220.61V50.2461C1220.61 50.8633 1220.78 51.3438 1221.12 51.6875C1221.46 52.0273 1221.95 52.1973 1222.58 52.1973C1223.21 52.1973 1223.7 52.0273 1224.04 51.6875C1224.38 51.3477 1224.54 50.8691 1224.54 50.252V44.4688H1225.68ZM1235.01 53H1233.88L1229.58 46.4258V53H1228.45V44.4688H1229.58L1233.89 51.0723V44.4688H1235.01V53ZM1243.72 45.3945H1240.98V53H1239.86V45.3945H1237.13V44.4688H1243.72V45.3945Z" fill="white"/>
<path d="M1366.69 49.3613C1366.69 50.6309 1366.47 51.5742 1366.04 52.1914C1365.61 52.8086 1364.93 53.1172 1364.01 53.1172C1363.1 53.1172 1362.42 52.8164 1361.98 52.2148C1361.55 51.6094 1361.32 50.707 1361.3 49.5078V48.0605C1361.3 46.8066 1361.52 45.875 1361.96 45.2656C1362.39 44.6562 1363.07 44.3516 1363.99 44.3516C1364.91 44.3516 1365.59 44.6465 1366.02 45.2363C1366.46 45.8223 1366.68 46.7285 1366.69 47.9551V49.3613ZM1365.61 47.8789C1365.61 46.9609 1365.48 46.293 1365.22 45.875C1364.96 45.4531 1364.55 45.2422 1363.99 45.2422C1363.44 45.2422 1363.04 45.4512 1362.78 45.8691C1362.53 46.2871 1362.4 46.9297 1362.39 47.7969V49.5312C1362.39 50.4531 1362.52 51.1348 1362.79 51.5762C1363.06 52.0137 1363.46 52.2324 1364.01 52.2324C1364.54 52.2324 1364.94 52.0254 1365.2 51.6113C1365.46 51.1973 1365.59 50.5449 1365.61 49.6543V47.8789Z" fill="white"/>
<path d="M1372.74 49.5957C1372.74 50.4668 1372.62 51.3027 1372.39 52.1035C1372.16 52.9004 1371.81 53.6367 1371.34 54.3125C1370.87 54.9883 1370.38 55.4688 1369.87 55.7539L1369.64 55.0918C1370.24 54.6309 1370.72 53.916 1371.08 52.9473C1371.45 51.9746 1371.64 50.8965 1371.65 49.7129V49.5254C1371.65 48.7051 1371.56 47.9434 1371.39 47.2402C1371.22 46.5332 1370.98 45.9004 1370.67 45.3418C1370.36 44.7832 1370.02 44.3477 1369.64 44.0352L1369.87 43.373C1370.38 43.6582 1370.87 44.1348 1371.34 44.8027C1371.8 45.4707 1372.15 46.207 1372.38 47.0117C1372.62 47.8164 1372.74 48.6777 1372.74 49.5957Z" fill="white"/>
<path d="M1319.98 50.293C1319.87 51.1953 1319.54 51.8926 1318.98 52.3848C1318.42 52.873 1317.67 53.1172 1316.74 53.1172C1315.74 53.1172 1314.93 52.7559 1314.32 52.0332C1313.71 51.3105 1313.41 50.3438 1313.41 49.1328V48.3125C1313.41 47.5195 1313.55 46.8223 1313.83 46.2207C1314.12 45.6191 1314.52 45.1582 1315.04 44.8379C1315.56 44.5137 1316.16 44.3516 1316.84 44.3516C1317.75 44.3516 1318.48 44.6055 1319.02 45.1133C1319.57 45.6172 1319.89 46.3164 1319.98 47.2109H1318.85C1318.75 46.5312 1318.54 46.0391 1318.21 45.7344C1317.88 45.4297 1317.43 45.2773 1316.84 45.2773C1316.12 45.2773 1315.56 45.543 1315.15 46.0742C1314.74 46.6055 1314.54 47.3613 1314.54 48.3418V49.168C1314.54 50.0938 1314.73 50.8301 1315.12 51.377C1315.51 51.9238 1316.05 52.1973 1316.74 52.1973C1317.37 52.1973 1317.85 52.0566 1318.18 51.7754C1318.52 51.4902 1318.74 50.9961 1318.85 50.293H1319.98ZM1327.23 50.7734H1323.66L1322.85 53H1321.69L1324.95 44.4688H1325.94L1329.2 53H1328.04L1327.23 50.7734ZM1324 49.8477H1326.9L1325.44 45.8574L1324 49.8477ZM1334.48 49.5488H1332.47V53H1331.34V44.4688H1334.17C1335.13 44.4688 1335.87 44.6875 1336.38 45.125C1336.9 45.5625 1337.16 46.1992 1337.16 47.0352C1337.16 47.5664 1337.02 48.0293 1336.73 48.4238C1336.44 48.8184 1336.04 49.1133 1335.53 49.3086L1337.54 52.9297V53H1336.33L1334.48 49.5488ZM1332.47 48.6289H1334.2C1334.76 48.6289 1335.2 48.4844 1335.53 48.1953C1335.86 47.9062 1336.03 47.5195 1336.03 47.0352C1336.03 46.5078 1335.87 46.1035 1335.55 45.8223C1335.24 45.541 1334.79 45.3984 1334.2 45.3945H1332.47V48.6289ZM1345.17 45.3945H1342.43V53H1341.31V45.3945H1338.57V44.4688H1345.17V45.3945ZM1350.96 49.5371C1350.96 48.6543 1351.08 47.8066 1351.32 46.9941C1351.55 46.1816 1351.91 45.4434 1352.38 44.7793C1352.85 44.1152 1353.33 43.6465 1353.84 43.373L1354.06 44.0879C1353.49 44.5254 1353.02 45.1934 1352.65 46.0918C1352.29 46.9902 1352.09 47.9961 1352.05 49.1094L1352.05 49.6074C1352.05 51.1152 1352.32 52.4238 1352.88 53.5332C1353.21 54.1973 1353.6 54.7168 1354.06 55.0918L1353.84 55.7539C1353.32 55.4648 1352.82 54.9805 1352.35 54.3008C1351.43 52.9727 1350.96 51.3848 1350.96 49.5371Z" fill="white"/>
<path d="M1028.37 53H1027.24L1022.95 46.4258V53H1021.81V44.4688H1022.95L1027.25 51.0723V44.4688H1028.37V53ZM1036.19 49.0566H1032.49V52.0801H1036.79V53H1031.37V44.4688H1036.73V45.3945H1032.49V48.1367H1036.19V49.0566ZM1041.03 50.3105L1041.19 51.4355L1041.43 50.4219L1043.12 44.4688H1044.07L1045.72 50.4219L1045.95 51.4531L1046.13 50.3047L1047.46 44.4688H1048.59L1046.52 53H1045.49L1043.74 46.7832L1043.6 46.1328L1043.47 46.7832L1041.64 53H1040.62L1038.56 44.4688H1039.68L1041.03 50.3105ZM1053.36 49.1973C1052.39 48.9199 1051.69 48.5801 1051.25 48.1777C1050.81 47.7715 1050.59 47.2715 1050.59 46.6777C1050.59 46.0059 1050.86 45.4512 1051.39 45.0137C1051.93 44.5723 1052.63 44.3516 1053.49 44.3516C1054.08 44.3516 1054.6 44.4648 1055.05 44.6914C1055.52 44.918 1055.87 45.2305 1056.12 45.6289C1056.38 46.0273 1056.5 46.4629 1056.5 46.9355H1055.37C1055.37 46.4199 1055.21 46.0156 1054.88 45.7227C1054.55 45.4258 1054.09 45.2773 1053.49 45.2773C1052.94 45.2773 1052.5 45.4004 1052.19 45.6465C1051.88 45.8887 1051.73 46.2266 1051.73 46.6602C1051.73 47.0078 1051.87 47.3027 1052.17 47.5449C1052.46 47.7832 1052.96 48.002 1053.67 48.2012C1054.38 48.4004 1054.94 48.6211 1055.34 48.8633C1055.74 49.1016 1056.04 49.3809 1056.23 49.7012C1056.42 50.0215 1056.52 50.3984 1056.52 50.832C1056.52 51.5234 1056.25 52.0781 1055.71 52.4961C1055.17 52.9102 1054.45 53.1172 1053.55 53.1172C1052.96 53.1172 1052.42 53.0059 1051.91 52.7832C1051.4 52.5566 1051.01 52.248 1050.73 51.8574C1050.46 51.4668 1050.32 51.0234 1050.32 50.5273H1051.45C1051.45 51.043 1051.64 51.4512 1052.02 51.752C1052.4 52.0488 1052.91 52.1973 1053.55 52.1973C1054.14 52.1973 1054.6 52.0762 1054.91 51.834C1055.23 51.5918 1055.39 51.2617 1055.39 50.8438C1055.39 50.4258 1055.24 50.1035 1054.95 49.877C1054.66 49.6465 1054.12 49.4199 1053.36 49.1973ZM1060.1 52.0801H1064.14V53H1058.97V44.4688H1060.1V52.0801ZM1071.25 49.0566H1067.55V52.0801H1071.84V53H1066.42V44.4688H1071.79V45.3945H1067.55V48.1367H1071.25V49.0566ZM1080.26 45.3945H1077.51V53H1076.39V45.3945H1073.66V44.4688H1080.26V45.3945ZM1088.51 45.3945H1085.77V53H1084.65V45.3945H1081.91V44.4688H1088.51V45.3945ZM1095.6 49.0566H1091.9V52.0801H1096.2V53H1090.78V44.4688H1096.14V45.3945H1091.9V48.1367H1095.6V49.0566ZM1101.72 49.5488H1099.72V53H1098.59V44.4688H1101.41C1102.38 44.4688 1103.11 44.6875 1103.63 45.125C1104.15 45.5625 1104.41 46.1992 1104.41 47.0352C1104.41 47.5664 1104.26 48.0293 1103.97 48.4238C1103.69 48.8184 1103.29 49.1133 1102.78 49.3086L1104.78 52.9297V53H1103.58L1101.72 49.5488ZM1099.72 48.6289H1101.45C1102.01 48.6289 1102.45 48.4844 1102.78 48.1953C1103.11 47.9062 1103.28 47.5195 1103.28 47.0352C1103.28 46.5078 1103.12 46.1035 1102.8 45.8223C1102.49 45.541 1102.04 45.3984 1101.44 45.3945H1099.72V48.6289Z" fill="white"/>
</svg>
